<svg xmlns="http://www.w3.org/2000/svg" viewBox="0 0 512 512"><path d="M314.262 288.662c-12.359 82.097-74.152 126.234-153.6 126.234C71.503 414.897 0 345.159 0 256S71.503 97.103 160.662 97.103c43.255 0 81.214 12.359 108.579 38.841l-46.786 46.786c-15.007-15.89-37.076-23.834-61.793-23.834-52.966 0-98.869 44.138-98.869 97.103s45.903 97.103 98.869 97.103c44.138 0 77.683-28.248 87.393-70.621h-89.159V220.69h155.366c1.766 10.593 2.648 23.834 2.648 35.31 0 11.476-.882 22.069-2.648 32.662M512 264.828h-52.966v52.965h-44.137v-52.965h-52.966V220.69h52.966v-52.966h44.137v52.966H512z" fill="#d95946"/></svg>