<svg xmlns="http://www.w3.org/2000/svg" width="612" height="612"><path d="M202.302 353.148c-46.343 23.113-90.541 45.085-146.523 61.376V305.988a25.513 25.513 0 0 1 11.166-21.096l41.807-28.428c3.571-2.428 10.026-4.415 14.344-4.415h67.119v-39.534h75.523v39.534h57.871c9.393 0 17.006 7.614 17.006 17.006v23.501c-53.202 18.167-96.082 39.535-138.313 60.592zm-12.087-179.672v20.514h75.523v-20.514c0-10.51-8.52-19.029-19.029-19.029h-37.467c-10.508 0-19.027 8.519-19.027 19.029zm-43.863-59.811a38.948 38.948 0 0 0 15.307-3.122c5.336 7.391 13.97 12.248 23.782 12.248 3.202 0 6.228-.64 9.113-1.587-.046.532-.16 1.044-.16 1.587 0 10.061 8.155 18.215 18.215 18.215s18.215-8.155 18.215-18.215-8.155-18.215-18.215-18.215l-.012.001a29.26 29.26 0 0 0 2.226-11.169c0-16.228-13.155-29.384-29.383-29.384-.54 0-1.043.13-1.575.159-4.575-16.508-19.549-28.695-37.513-28.695-21.588 0-39.088 17.5-39.088 39.088s17.5 39.089 39.088 39.089zm382.602 382.6c-3.778 5.754-3.881 13.155-.061 18.881l22.525 33.761c8.232 12.31-1.351 28.69-16.114 27.549l-500.885-39.35c-13.626-1.07-25.016-10.651-28.489-23.872C2.893 501.669 0 487.318 0 474.604c0-26.148 10.511-31.027 32.011-36.157 192.263-45.878 245.145-156.462 565.948-174.566 8.333-.47 15.035 6.81 13.919 15.081-9.506 70.423-43.084 156.639-82.924 217.303zm-24.48-82.651c0-4.7-3.804-8.504-8.504-8.504s-8.503 3.804-8.503 8.504c0 13.133-8.766 24.136-20.711 27.803v-58.622c6.393-3.17 10.827-9.696 10.827-17.314 0-10.707-8.68-19.387-19.387-19.387-10.706 0-19.386 8.68-19.386 19.387 0 7.663 4.484 14.226 10.938 17.373v58.563c-11.945-3.667-20.711-14.67-20.711-27.803 0-4.7-3.804-8.504-8.504-8.504s-8.504 3.804-8.504 8.504c0 25.485 20.735 46.221 46.221 46.221 25.488 0 46.224-20.735 46.224-46.221z"/></svg>