<svg xmlns="http://www.w3.org/2000/svg" viewBox="0 0 198.491 198.491"><path d="M112.807 95.937c20.774-9.198 35.557-39.306 36.855-74.213h8.458a5 5 0 0 0 5-5V5a5 5 0 0 0-5-5H40.37a5 5 0 0 0-5 5v11.724a5 5 0 0 0 5 5h8.458c1.299 34.907 16.081 65.014 36.855 74.213 1.366.605 2.248 1.903 2.248 3.309 0 1.405-.882 2.703-2.248 3.308-20.774 9.199-35.557 39.306-36.855 74.213H40.37a5 5 0 0 0-5 5v11.724a5 5 0 0 0 5 5h117.75a5 5 0 0 0 5-5v-11.724a5 5 0 0 0-5-5h-8.458c-1.299-34.906-16.081-65.014-36.855-74.213-1.366-.605-2.248-1.903-2.248-3.308 0-1.406.882-2.704 2.248-3.309zM88.378 82.034c-3.317-1.95-7.086-5.792-10.479-9.828 6.066 1.465 13.464 2.681 21.306 2.681 8.115 0 15.769-1.303 21.964-2.835-2.989 3.508-6.72 7.227-11.077 10.273-1.767 1.235-5.555 2.678-10.415 2.678-2.851 0-7.125-.515-11.299-2.969zm-25.056 90.98c.009-.519.022-1.08.04-1.684.071-2.455.721-7.242 1.296-10.5a.489.489 0 0 1 .342-.381l31.357-9.854a9.634 9.634 0 0 1 5.77 0l31.259 9.823a.491.491 0 0 1 .344.396c.229 1.522.567 3.88.882 6.47.236 1.943.366 3.973.437 5.731H63.322z"/></svg>