<svg xmlns="http://www.w3.org/2000/svg" viewBox="0 0 512 512"><path d="M300.138 13.241h-6.262C290.469 5.45 282.703 0 273.655 0h-36.782c-9.047 0-16.814 5.45-20.221 13.241h-6.262c-12.188 0-22.069 10.052-22.069 22.24 0 2.456.418 4.243 1.158 7.186h131.569c.74-2.943 1.158-4.73 1.158-7.186.001-12.188-9.88-22.24-22.068-22.24zm113.979 51.495H395.77v390.977c0 6.094-4.374 10.678-10.468 10.678H126.698c-6.095 0-10.468-4.584-10.468-10.678V64.736H97.883c-18.481 0-33.148 14.693-33.148 33.174V479.2c0 18.481 14.667 32.8 33.148 32.8h316.234c18.482 0 33.148-14.32 33.148-32.8V97.91c-.001-18.481-14.668-33.174-33.148-33.174z"/><path d="M138.299 64.736v379.586h235.402V64.736H138.299zm57.379 214.804h-10.299c-6.095 0-11.034-4.94-11.034-11.034s4.939-11.034 11.034-11.034h10.299c6.095 0 11.034 4.94 11.034 11.034s-4.938 11.034-11.034 11.034zm0-52.965h-10.299c-6.095 0-11.034-4.94-11.034-11.034s4.939-11.034 11.034-11.034h10.299c6.095 0 11.034 4.94 11.034 11.034s-4.938 11.034-11.034 11.034zm0-52.966h-10.299c-6.095 0-11.034-4.94-11.034-11.034s4.939-11.034 11.034-11.034h10.299c6.095 0 11.034 4.94 11.034 11.034s-4.938 11.034-11.034 11.034zM326.621 279.54h-75.034c-6.095 0-11.034-4.94-11.034-11.034s4.939-11.034 11.034-11.034h75.034c6.095 0 11.034 4.94 11.034 11.034s-4.939 11.034-11.034 11.034zm0-52.965h-75.034c-6.095 0-11.034-4.94-11.034-11.034s4.939-11.034 11.034-11.034h75.034c6.095 0 11.034 4.94 11.034 11.034s-4.939 11.034-11.034 11.034zm0-52.966h-75.034c-6.095 0-11.034-4.94-11.034-11.034s4.939-11.034 11.034-11.034h75.034c6.095 0 11.034 4.94 11.034 11.034s-4.939 11.034-11.034 11.034z"/></svg>