<svg id="Capa_1" xmlns="http://www.w3.org/2000/svg" viewBox="0 0 512 512"><style>.st0{fill:#006c35}.st1{fill:#fff}</style><path class="st0" d="M0 71.1h512v369.8H0z"/><path class="st0" d="M364.1-20.9H45.5C20.4-20.9 0-41.3 0-66.4v-204.8c0-25.1 20.4-45.5 45.5-45.5h318.6c25.1 0 45.5 20.4 45.5 45.5v204.8c0 25.1-20.4 45.5-45.5 45.5" transform="matrix(1.25 0 0 -1.25 0 45)"/><path class="st1" d="M96.7-103.3c-.5-7-1.1-19.3 4.8-20.6 7.2-.7 3.2 12.2 5.8 14.5.5 1.1 1.4 1.1 1.5-.3v-10.9c-.1-3.5 2.3-4.6 4.1-5.3 1.9.1 3.2.1 3.9-1.8l.9-18.9s4.4-1.3 4.6 10.6c.2 7-1.4 12.8-.5 14.1 0 1.3 1.7 1.4 2.9.8 1.9-1.3 2.7-3 5.6-2.3 4.4 1.2 7.1 3.4 7.2 6.8-.3 3.2-.6 6.5-2 9.7.2.6-.9 2.1-.7 2.7.8-1.3 2-1.1 2.3 0-.8 2.5-1.9 4.9-3.8 5.9-1.6 1.4-3.9 1.1-4.7-1.8-.4-3.3 1.2-7.3 3.6-10.5.5-1.3 1.2-3.4.9-5.2-1.3-.7-2.6-.4-3.7.7 0 0-3.5 2.7-3.5 3.2.9 6 .2 6.7-.3 8.4-.4 2.3-1.5 3-2.3 4.6-.9.9-2.1.9-2.7 0-1.6-2.7-.8-8.5.3-11.1.8-2.4 2.1-3.9 1.5-3.9-.5-1.4-1.5-1-2.2.5-1 3.2-1.3 8.1-1.3 10.2-.3 2.7-.6 8.4-2.4 9.9-1.1 1.5-2.7.8-3.2-.6-.1-2.7-.1-5.3.2-7.8 1.2-4.3 1.6-8.1 2.2-12.5.2-5.9-3.4-2.6-3.3.4.8 3.8.6 9.8-.1 11.3-.6 1.5-1.3 1.9-2.7 1.7-1.1.1-4-3.1-4.8-8.3 0 0-.7-2.7-1-5.1-.4-2.7-2.2-4.6-3.4.4-1.3 3.6-1.9 12.6-3.7 10.5" transform="matrix(1.25 0 0 -1.25 0 45)"/><path class="st1" d="M116.2-132c-6.3-3.1-12.5-6-18.7-9 .2 4.2 8.9 11.9 14.8 12 3.8-.1 2.9-1.5 3.9-3" transform="matrix(1.25 0 0 -1.25 0 45)"/><path class="st1" d="M132.6-134.7c-.2-.4-1.1-.2-1.8-.2-.8 0-1.1.2-1.6.8-.2.7.4 1.3.7 1.8.4.6 2.3 1.2 2.9-.5.4-.7.2-1.5-.2-1.9m29.2 9.3c-.1-.9-.3-1.8-.4-2.7-.2-.9-1.9-.9-2 .2-.8 3.5-3.9 3.9-5.8-1.5-1.3-1-3.6-1.3-3.8.3.3 3.6-1.2 4.1-4.1 2.4-.9 7.1-1.9 14-2.8 21.1 1.2 0 2.3-.9 3.4.5-1.2 3.8-3.8 11.5-5.2 12.1-.7.8-1.3.3-2.2.1-1.5-.5-2.9-1.8-2.5-4.4 1.8-11 3-19.3 4.8-30.3.3-1.3-.8-3-2.2-2.8-2.4 1.6-2.9 4.8-7 4.7-2.9 0-6.3-3.2-6.7-6.2-.5-2.4-.7-5.1 0-7.2 2.1-2.5 4.5-2.2 6.7-1.7 1.8.7 3.2 2.5 3.8 2.1.4-.5.1-6.3-8.3-10.8-5.1-2.3-9.2-2.8-11.4 1.4-1.4 2.6.1 12.5-3.2 10.2-9.9-25.4 23.1-29 26.8-1 .4 1.1 1.7 2.3 2 .4-.8-25.3-25.5-27-29.7-19.1-1 1.9-1.4 6-1.5 8.5-.6 5-3.2 3-3.6-1.9-.4-2.7-.3-3.5-.3-6.1 1.3-20 33.2-11.4 38.3 5.1 2.7 9.1-.4 15.9 1 15.8 3.2-3.4 7.6-.5 8.5.7.4.6 1.5 1 2.2.2 2.5-1.8 6.8-.9 7.7 2.2.5 3 .9 6.2 1 9.5-1.9-.5-3.4-.9-3.5-1.8" transform="matrix(1.25 0 0 -1.25 0 45)"/><path class="st1" d="M163-98c-.6-.1-1.4.4-1.7 1.2-.4.8-.2 1.6.4 1.7.6.1 1.4-.4 1.7-1.2.4-.8.2-1.6-.4-1.7m1.7 0c2.3 1.4 1.6 4.3.4 5.7-2 .9-3.8.6-5.1 0-1.6-1.6-2-4.1-.7-5.6 1.3-.6 2.5-1.9 1.7-2.5-3.8-4.1-14.3-11.2-13.1-11.4.3-.3 6.7-.3 6.9 0 2 .7 11.4 11.5 11.4 11.5-.5.4-.9.7-1.4 1.1-.6.3-.5.7-.1 1.2m-66.6-52c-3.5-5.6-3.8-14-1.9-16.5 1-1.2 2.7-1.7 4-1.3 2.2 1 3.2 5.4 2.6 7.1-.7 1.1-1.3 1.3-2 .4-1.5-3.2-2.2-1-2.3.8-.2 3.3.1 6.4.4 8.9.4 2.4 0 1.6-.8.6m150.3 9c-3.4 7.3-8.1 14.6-9.6 17.3-1.5 2.8-12.8 19.2-14.5 21-3.7 4.4 6-1.8-1.2 6.8-2.7 2.4-2.9 2.5-5.2 4.4-1.1.8-3.9 2.3-4.4-.2-.3-2.2-.1-3.4.3-5.2.3-1.2 2-3.2 2.9-4.4 11.5-15.4 21.6-31 31.5-50.6 1.5 1 1.1 9.7.2 10.9" transform="matrix(1.25 0 0 -1.25 0 45)"/><path class="st1" d="M233.5-165.5c-.7-.8 1.6-4 4.7-4 5.1.6 9.5 3.4 13.6 10.9 1.1 1.7 3 5.5 3.1 8.3.4 16.9-.8 30.1-3.4 42.3-.2 1.2-.1 2.6.1 2.9.3.4 1.4 0 2 1 .9.9-2.3 8.2-4.1 11-.6 1.3-.9 2.1-1.9-.1-1.1-1.8-1.9-5-1.8-8 2.4-16.7 3.1-31.2 4.7-47.9.1-1.6-.1-4-1.2-4.9-3.9-4.1-9.6-9.2-15.8-11.5m68.1.1c-3.6-2.1-3.6-4.5-.7-4.6 5 .6 11 1 15.1 7.2 1.1 1.7 2.4 6.4 2.5 9.3.4 16.9-.2 29.5-2.8 41.7-.2 1.2-.7 3.9-.5 4.3.3.8 2-.1 2.6.9.9.9-4.3 7.5-6 10.3-.6 1.3-.9 2.1-1.9-.1-1.1-1.8-1.5-5.1-1.1-8 2.7-18.1 4.7-31.7 5.1-47.7-.2-1.5-.3-2.3-1-4.3-1.6-2-3.3-4.6-5-5.8s-5.1-2.3-6.3-3.2" transform="matrix(1.25 0 0 -1.25 0 45)"/><path class="st1" d="M304.3-149.2c0 4.2.1 7.9-.1 11-.1 3.2-.7 5.7-1.8 8-1 2.4-.4 4.3-.9 6.9-.5 2.6-.4 6.4-1.1 9.4-.2 1.2-.8 5-.6 5.3.3.9 1.4 0 2 1 .8.9-2.9 10.5-4.8 13.3-.7 1.2-1.9.8-3.4-1.2-1.4-1.3-.9-4.3-.4-7.2 3.6-18.9 6.3-36 5.7-53.9-.1-1.6 5.5 4.5 5.4 7.4m-26.7 23.4c-2.3 0-7 4.4-8.4 7-.5 1.5-.2 2.9.3 3.8.8.5 2.1 1.2 3.1.6 0 0 1-1.4.8-1.6 1.2-.6 1.8-.3 1.9.3.1.9-.4 1.4-.4 2.4.5 2.7 3.5 3 4.7 1.4.8-1 1.1-3.2 1.3-4.7 0-.8-1.2.1-1.9-.1s-.9-1-.9-1.7c-.2-2-.5-5.1-.5-7.4m-42-28.1c.6 5.7-.2 16-.3 19.4-.2 8-1.5 23.5-2.2 26.1-.7 4.9 2-.5 1.6 2.3-.9 4.9-3.6 8.2-6.7 12.6-1 1.4-1 1.7-2.6-.4-1.8-4-.2-6.7.2-9.8 2.3-10.1 3.6-19.3 4.2-28.5.6-9.2.8-19 .3-28.7 1.8 0 4.5 2.9 5.5 7" transform="matrix(1.25 0 0 -1.25 0 45)"/><path class="st1" d="M312.1-144.7c-4 6.7-10.1 14-11.7 16.7-1.6 2.7-15.3 20.4-17.1 22.1-5 5.3 2.3.9-.9 4.9-2.8 3-3.6 4-5.9 5.8-1.2.8-1.9 2.2-2.3-.3-.1-2.2-.3-4.7-.2-6.5 0-1 1.1-2.9 2-4.1 12.1-14.9 25.4-30.1 36-49.3 1.5.9 1 9.5.1 10.7M168.6-97.6c-3.7-10.4 2.1-21.9 6.1-20.8 2.9-1.2 4.7 4.3 5.9 10.3.8 1.7 1.4 1.9 1.8 1-.1-8 .6-9.7 2.6-12.2 4.6-3.5 8.3-.5 8.6-.2l3.6 3.6c.8.8 1.8.9 3 .1 1.1-1 .9-2.7 3.3-3.9 2-.8 6.1-.2 7.1 1.5 1.3 2.2 1.6 3 2.2 3.8.9 1.2 2.5.7 2.5.3-.1-.7-1.1-1.4-.4-2.6 1.1-.8 1.4-.3 2-.1 2.3 1.1 4.1 6.2 4.1 6.2.1 1.9-.9 1.7-1.6 1.3-.9-.5-.9-.7-1.8-1.3-1.1-.2-3.3-.9-4.4.8-1.1 2-1.1 4.8-2 6.9 0 .2-1.5 3.2-.1 3.4.7-.1 2.2-.5 2.4.7.7 1.2-1.6 4.6-3.1 6.4-1.4 1.5-3.2 1.7-5 .1-1.3-1.2-1.1-2.5-1.3-3.7-.3-1.4-.3-3.2 1.2-5 1.3-2.5 3.6-5.7 2.8-10.2 0 0-1.4-2.1-3.7-1.9-1 .2-2.6.6-3.4 6.9-.6 4.7.1 11.4-1.9 14.5-.7 1.9-1.3 3.7-3 .5-.5-1.3-2.5-3.2-1-7.1 1.2-2.5 1.7-6.6 1.1-11.1-.8-1.3-1-1.7-2.1-3-1.5-1.7-3.2-1.2-4.5-.6-1.2.8-2.1 1.2-2.7 3.8.1 4.1.3 10.8-.4 12.2-1.1 2.2-2.9 1.4-3.7.7-3.7-3.4-5.6-9.2-6.7-13.8-1-3.4-2.1-2.4-2.9-1-2.1 2-2.3 15.8-4.6 13.5" transform="matrix(1.25 0 0 -1.25 0 45)"/><path class="st1" d="M202.9-148.9c-2.3-.8-4.5-1.4-4.5-4.7.8-4.6-1.2-3-2.4-2.4-1.4 1-5.4 3.5-6 8.7-.1 1.3.9 2.3 2.5 2.3 2.4-.7 5.9-.7 8.9-1 2.6-.1 3.8-2.1 1.5-2.9m8.6 21.6c.3.5 1.4.5 2.4-.1s1.5-1.5 1.2-2c-.3-.5-1.4-.5-2.4.1s-1.5 1.5-1.2 2zM228-140l-21.4.1c-1.1.4-.8.8 0 1.1 5.1.7 14.2 2.2 14.8 10.9-.1 4.6-1.9 7.5-7.5 8.4-4.1-.3-7-4.3-6.5-8.7-.2-1.2.4-3.5-.8-3.7-7.9-.7-16.4-5.6-16.7-9.2-.5-.3-1.5.6-1.4 2.1-.3 6.1-2.3 13-5.4 18.3-2.5 2.5-1.7 1.7-3.4.5-1.1-1.2-1.3-2.1-1.2-4.5 0-.1 2-5.7 3.7-9.6 1.1-4 2.2-8.6 1.4-12.9-2.6-5.7-7.9-10.9-13.1-13.7-2.6-.9-4.9-.5-5.5 0-1.6 1.1-1.5 3.1-1.4 3.1 4.3 3 9.3 5.4 13.1 13.6 1.1 3.1 1.5 5 .4 9.8-.5 1.8-1 3.3-2.2 4.5.7.4 2.7-1.1 3-.2-.4 2.3-2 5.4-3.8 6.9-1.5 1.4-3.2 1.6-4.6.3-1.6-.9-1.9-4.1-1.2-6.8.8-2.1 3.1-2.4 4.8-6.7 0-.1.6-3.1-.3-4.3-.7-2.1-9.4-8.9-9.9-9.2-.2-.3-.1.1-.2 1.3-.1 1.4.6 4.7.4 4.7-2.8-1.8-3.8-7.4-4.3-9.1-7.2-5-15.3-8.6-20-13.7-2.4-3.8 16.8 4.4 19.1 5.4.5-.4.4-2.1 1.8-3.6 2-2.7 6.2-4.4 10.4-3.3 7 2.5 11 7.2 15 12.5.6.9 1.5 1.5 2.3.9 2.8-6.3 10.9-10.7 21.3-11.2 2.4 2.9 1.3 4.4.3 5 0 .1-5.2 2-5.9 4-.5 1.8.7 3.3 3 4.5 6.7.8 13.3 1.7 19.7 3.8.1 2.1 1.3 5.3 2.2 6.7.8 1.4 1.3 1 1.1 1.5l-1.1.5zM123.6-97.7c2.5-1.2 7.1-.7 6.9 3.3 0 .3-.1 1.5-.1 1.9-.5 1.2-1.9.9-2.2-.3-.1-.4.2-1-.2-1.2-.2-.2-1-.1-1 1 0 .4-.3.7-.4.9-.2.1-.3.1-.5.1-.3 0-.3-.1-.5-.4-.1-.3-.2-.6-.2-.9 0-.4-.2-.5-.5-.6-.3 0-.3 0-.5.1-.2.2-.4.2-.4.5s-.1.8-.2 1c-.1.2-.4.3-.6.3-1.3 0-1.4-1.5-1.4-2.1.1-.1 0-2.8 1.8-3.6" transform="matrix(1.25 0 0 -1.25 0 45)"/><path class="st1" d="M195.8-128.2c2.5-1.2 8.3-.5 6.9 3.3 0 .4-.1 1.5-.1 1.9-.5 1.2-1.9.9-2.2-.3-.1-.4.2-1-.2-1.2-.2-.2-1-.1-1 1 0 .4-.3.7-.4.9-.2.1-.3.1-.5.1-.3 0-.3-.1-.5-.4-.1-.3-.2-.6-.2-.9 0-.4-.2-.5-.5-.6-.3 0-.3 0-.5.1-.2.2-.4.2-.4.5s-.1.8-.2 1c-.1.2-.4.3-.6.3-1.4 0-1.4-1.5-1.4-2.1 0-.1 0-2.8 1.8-3.6m42.1 12.6c2.5-1.2 7.1-.7 6.9 3.3 0 .3-.1 1.5-.1 1.9-.5 1.2-1.9.9-2.2-.3-.1-.4.2-1-.2-1.2-.2-.2-1-.1-1 1 0 .4-.3.7-.4.9-.2.1-.3.1-.5.1-.3 0-.3-.1-.5-.4-.1-.3-.2-.6-.2-.9 0-.4-.2-.5-.5-.6-.3 0-.3 0-.5.1-.1.2-.3.2-.3.5s-.1.8-.2 1c-.1.2-.4.3-.6.3-1.3 0-1.4-1.5-1.4-2.1-.1 0-.1-2.8 1.7-3.6m21.8-31.7c-4.3-4.8-2.4-12.8-1.4-14.6 1.4-2.8 2.6-4.6 5.3-6 2.5-1.8 4.4-.7 5.5.6 2.5 2.6 2.6 9.3 3.7 10.6.8 2.4 2.9 2 3.9.9 1-1.4 2.1-2.3 3.6-3.1 2.4-2.1 5.2-2.5 7.9-.6 1.9 1.1 3.1 2.4 4.2 5.2 1.2 3.3.5 18.5.3 27.5-.1.7-2.4 12.4-2.4 12.5 0 .1-.3 6-.6 7.4 0 .6-.2.7.4.6.6-.5.7-.6 1.1-.7.6-.1 1.2 1 .8 2-2 3.6-3.9 7.2-5.9 10.8-.5.5-1.1 1-1.8-.1-.7-.6-1.5-1.8-1.5-3.2.2-2.6.6-5.2.8-7.7.8-4.4 1.6-8.8 2.3-13.2.8-9.4.9-17.1 1.7-26.5-.1-4-1.3-7.5-2.5-8 0 0-1.8-1-2.9.1-.9.4-4.3 5.7-4.3 5.7-1.8 1.6-2.9 1.1-4.2 0-3.5-3.3-5-9.6-7.4-13.9-.6-1-2.3-1.8-4.2.1-4.6 6.6-1.8 16-2.4 13.6M239-92.5c2.2-.9 3.8-5.4 3.3-7.6-.4-2.7-1.6-5.6-2.4-5.2-.9.3.6 2.7-.3 5.1-.5 1.6-3.5 4.5-3.2 5.4-.6 1.8 1.3 2.6 2.6 2.3" transform="matrix(1.25 0 0 -1.25 0 45)"/><path class="st1" d="M266.8-150c.5 5.4-.3 8.6-.5 11.8-.1 3.1-3.6 27.2-4.3 29.6-.8 4.5 3.3.6 2.9 3.2-1.4 3.3-5 8.1-6.2 11-.7 1.2-.4 2.3-1.9.3-1.4-4.6-1.9-8.4-1.4-11.2 3.6-18.9 7.3-34.6 6.7-52.5 1.9 0 3.9 3.9 4.7 7.8m37.7 49.9c2-1 3.2-6.6 3-8.2-.4-2.9-1.5-6.1-2.2-5.7-.8.4.2 4.3-.2 5.6-.4 1.7-3.2 4.9-2.9 5.8-.7 2 1.1 2.9 2.3 2.5M155-139.8c1.9-.7 3-4.8 2.8-6-.4-2.1-1.4-4.5-2.1-4.2-.8.3.2 3.2-.2 4.1-.2 2.2-2.8 3.3-2.8 4.3-.5 1.7 1.2 2 2.3 1.8m-51.4 48.6c2.8-.9 3-5 2.8-6.2-.4-2.2-1.4-4.6-2.1-4.3-.8.3 0 3.3-.4 4.2-.4 1.3-2.8 3.7-2.5 4.4-.6 1.5 1 2.2 2.2 1.9m56-19.7c-2.2-1.2-3-4.7-1.7-6.7 1.3-1.8 3.3-1.1 3.5-1.1 2.1-.3 3.4 4 3.4 4s.1 1.2-2.5-1.1c-1.1-.2-1.2.2-1.5.8-.2 1.1-.2 2.2.3 3.3.6 1.1-.3 1.5-1.5.8M176-89.6c-1.1-.7-3.3-3-3.3-5.6-.1-1.5-.3-1.5.6-2.4.7-1 1.4-.9 2.8-.2.8.6 1.1 1 1.3 2 .3 1.7-1.8-.8-2 1.1-.5 1.7.9 2.4 2.1 4.1.1 1.1.1 2-1.5 1m13.2-2.3c-.5-1-1-6.5-.9-6.5-.4-1.6 1.7-2.3 2.6-.2 1.4 3.8 1.4 5.4 1.5 7.1-.5 2.4-2.1 2.3-3.2-.4m82.9-42.2c.3.3 11.7 8.4 11.7 8.4 1.2.4.9-4.2.4-4.2.2-.9-11.3-8.7-12.1-8.4-.5-.3-1.1 3.2 0 4.2m10.4 0c2-1 2.8-6.9 2.6-8.5.1-3.1-1.9-5.6-2.7-5.2-.8.4.1 3.9-.3 5.1-.4 1.7-2.1 5-1.9 5.9-.5 2 1.1 3 2.3 2.7m-67.8-25.3c.8 1.2 3.2 2.8 3.3 2.8 1.1.6 2.2-.4 2.2-.4.2-1.1-.7-2.2-.4-3.7.3-.6.4-1.3 1.5-1 1.8 1.4 3.5 1.5 5.3 1.6 1.4-.1 1.4-2.4.6-2.4-3.3-.7-4.8-1.6-7.2-2.5-1.1-.7-2.1.2-2.1.3 0 .1-.7.6-.2 2.1.1 1.2-.4 1.9-1.4 1.7-.8-.4-1.4-.7-1.8.2-.3.6-.3.9.2 1.3m79.8-3.2c.5-.6.8-1.2 0-2.2-.8-.7-1.4-1.1-2.2-1.9-.4-.6-.6-1.6.5-1.9 2.1-.6 7.1 2.6 7.1 2.7.8.6.5 1.7.5 1.7-.5.5-1.5.2-2.2.3-.3 0-1.4.2-.9 1.1.4.6.6 1 .9 1.7.3.7 0 1.2-1.1 1.6-1.2.2-1.7.1-3.1 0-.7-.1-1-.5-1.1-1.4 0-1.2.8-1.1 1.6-1.7m-4.4-63.1H273v5.7c0 3.1-2.5 5.7-5.7 5.7-3.1 0-5.7-2.5-5.7-5.7v-5.7H125.1s0-11.4 34.1-11.4h102.4v-5.7c0-3.1 2.5-5.7 5.7-5.7 3.1 0 5.7 2.5 5.7 5.7v5.7h11.4v-5.7c0-3.1 2.5-5.7 5.7-5.7 3.1 0 5.7 2.5 5.7 5.7v11.4c0 3.2-2.5 5.7-5.7 5.7" transform="matrix(1.25 0 0 -1.25 0 45)"/></svg>