<svg xmlns="http://www.w3.org/2000/svg" width="612" height="612"><path d="M612 342.869l-72.243 150.559a52.67 52.67 0 0 1-46.808 28.521H66.974c-7.85 0-12.942-8.277-9.402-15.285l.179-.355c5.778-11.439 2.35-25.383-8.074-32.836l-.589-.422a92.173 92.173 0 0 1-38.554-74.973v-34.141h379.228v-.211c0-11.52 9.338-20.857 20.856-20.857H612zM368.693 216.46h-73.738c-5.818 0-10.534 4.716-10.534 10.534v115.875c0 5.818 4.716 10.535 10.534 10.535h73.738c5.817 0 10.534-4.717 10.534-10.535V226.994c.001-5.818-4.716-10.534-10.534-10.534zm126.409 42.136H410.83c-5.817 0-10.534 4.716-10.534 10.534v42.135c0 5.818 4.717 10.535 10.534 10.535h84.272c5.818 0 10.534-4.717 10.534-10.535V269.13c0-5.818-4.716-10.534-10.534-10.534zm-326.557 94.806h84.272c5.818 0 10.534-4.717 10.534-10.533v-84.273c0-5.818-4.716-10.534-10.534-10.534h-84.272c-5.818 0-10.534 4.716-10.534 10.534v84.273c.001 5.817 4.717 10.533 10.534 10.533zm-5.39-158.011l-26.211 21.069v136.942H31.602V216.46H0v-21.069h73.738v-30.546H46.506v-12.296h27.232V90.051h10.534v62.498h27.233v12.296H84.272v30.546h78.883zm-45.242 86.671h-34.28v31.457h34.28v-31.457zm0-50.411h-34.28v31.458h34.28v-31.458z"/></svg>