<svg xmlns="http://www.w3.org/2000/svg" height="68pt" viewBox="-2 0 68 68.082" width="68pt"><path d="M1.938 57.27c5.792-3.172 8.937-2.497 11.917-1 .38.226 1.602.953 3.149 1.687a15.783 15.783 0 0 0 4.469 1.648 7.915 7.915 0 0 0 1.601.2h.61a19.215 19.215 0 0 0 8.828-2.496 16.895 16.895 0 0 1 6.02-2.16l.784-.063a9.474 9.474 0 0 1 1.246 0h.165c1.539.309 3.027.84 4.406 1.586l1 .55a15.815 15.815 0 0 0 8.039 2.594 19.16 19.16 0 0 0 8.828-2.5 1.265 1.265 0 0 0-1.137-2.258C56.32 57.974 53 57.696 50.164 56.45l9.992-25.61a1.258 1.258 0 0 0-.707-1.62 1.759 1.759 0 0 0-.246-.067l-26.055-4.507v15.98a1.251 1.251 0 0 1-2.5 0V24.66l-25.93 4.73a1.248 1.248 0 0 0-.933 1.672l8.453 21.899c-2.863-.797-6.433-.672-11.515 2.125a1.257 1.257 0 1 0 1.25 2.184zm46.64-25.317a4.27 4.27 0 1 1-.001 8.538 4.27 4.27 0 0 1 .001-8.538zm-37.617 4.254a4.27 4.27 0 1 1 8.54.002 4.27 4.27 0 0 1-8.54-.002zM1.938 65.383c6.937-3.742 10.07-2.059 13.73 0a15.76 15.76 0 0 0 8.043 2.597 19.166 19.166 0 0 0 8.824-2.496c6.945-3.746 10.078-2.058 13.735 0a15.77 15.77 0 0 0 8.039 2.598 19.142 19.142 0 0 0 8.828-2.496 1.357 1.357 0 1 0-1.274-2.398c-7.492 3.882-10.886 1.984-14.492 0-3.613-1.989-7.953-4.418-16.082 0-7.492 3.882-10.89 1.984-14.496 0-3.61-1.989-7.965-4.418-16.117 0a1.26 1.26 0 0 0 1.246 2.187zm0 0"/><path d="M13.168 25.23l18.23-3.156.5-.086.5.086 18.23 3.156h.208c.691 0 1.254-.554 1.254-1.246v-8.738c0-.5-.297-.953-.75-1.152l-8.926-3.844V1.246C42.414.563 41.852 0 41.16 0H22.637a1.25 1.25 0 0 0-1.25 1.246v9.004l-8.914 3.742a1.26 1.26 0 0 0-.75 1.153v8.738c-.067.691.441 1.3 1.129 1.363a1.2 1.2 0 0 0 .316-.016zm0 0"/></svg>