<svg xmlns="http://www.w3.org/2000/svg" viewBox="0 0 486.9 486.9"><path d="M260.75 215.8c-4.9-2.7-10.1-4.8-15.3-6.9-3-1.2-5.9-2.7-8.4-4.7-5-4-4-10.4 1.8-13 1.6-.7 3.4-1 5.1-1 .8 0 1.5-.1 2.3-.1 5.9 0 11.6 1.3 17 3.9 1.1.5 1.9.8 2.6.8 1.2 0 1.8-.9 2.5-3 1.1-3.3 2-6.7 3-10.1.7-2.3-.1-3.8-2.3-4.7-3.9-1.7-7.9-3-12.2-3.6-5.5-.9-5.5-.9-5.5-6.4 0-7.5 0-7.8-7-7.8h-4.3c-3.7.1-4.3.7-4.4 4.4v5c0 4.9-.1 4.8-4.7 6.5-11.3 4.1-18.3 11.8-19.1 24.2-.7 10.9 5 18.3 14 23.7 5.5 3.3 11.7 5.3 17.5 7.9 2.3 1 4.5 2.2 6.4 3.8 5.7 4.7 4.6 12.4-2.1 15.3-2.6 1.2-5.4 1.7-8.2 1.7-1 0-2-.1-3.1-.2-6-.7-11.7-2.3-17.1-5.1-1.2-.6-2-.9-2.7-.9-1.2 0-1.8 1-2.5 3.2-.9 3-1.8 6-2.6 8.9-1.1 4-.7 5 3.1 6.8 4.9 2.4 10.1 3.6 15.5 4.4 4.2.7 4.3.8 4.4 5.2 0 2 0 3.9.1 5.9 0 2.5 1.2 3.9 3.8 4h4.1c1.5 0 3.1 0 4.6-.1 2.4-.1 3.6-1.3 3.6-3.7 0-2.7.1-5.4 0-8.1s1.1-4.1 3.7-4.8c6-1.7 11.2-4.9 15.2-9.7 11-13.5 6.8-33.1-8.8-41.7z"/><path d="M332.85 0h-178.8c-28.8 0-52.4 23.6-52.4 52.4v382.1c0 28.8 23.6 52.4 52.4 52.4h178.8c28.8 0 52.4-23.6 52.4-52.4V52.3c0-28.8-23.6-52.3-52.4-52.3zm-67.5 455.1h-43.8c-8.5 0-15.4-6.9-15.4-15.4s6.9-15.4 15.4-15.4h43.8c8.5 0 15.4 6.9 15.4 15.4 0 8.4-7 15.4-15.4 15.4zm47.5-164.3c-19.2 19.2-44.3 28.7-69.4 28.7-17.2 0-34.4-4.5-49.7-13.5l-.2-.2c-11.8 8.9-24.2 11.9-34.4 11.9-2.6 0-5.1-.2-7.3-.6-3.7-.6-4.4-5.6-1.1-7.2 10.1-5 16.5-14.8 20.2-22.8l-1-.8c-34.1-38.5-32.8-97.5 4.1-134.4 19.2-19.2 44.3-28.7 69.4-28.7s50.2 9.6 69.4 28.7c38.3 38.5 38.3 100.6 0 138.9z"/></svg>