<svg xmlns="http://www.w3.org/2000/svg" viewBox="0 0 60 60"><path d="M31.962 11.02h-3.924A2.04 2.04 0 0 0 26 13.058v3.924a2.04 2.04 0 0 0 2.038 2.038h3.924A2.04 2.04 0 0 0 34 16.982v-3.924a2.04 2.04 0 0 0-2.038-2.038zm-9 0h-3.924A2.04 2.04 0 0 0 17 13.058v3.924a2.04 2.04 0 0 0 2.038 2.038h3.924A2.04 2.04 0 0 0 25 16.982v-3.924a2.04 2.04 0 0 0-2.038-2.038zm18 0h-3.924A2.04 2.04 0 0 0 35 13.058v3.924a2.04 2.04 0 0 0 2.038 2.038h3.924A2.04 2.04 0 0 0 43 16.982v-3.924a2.04 2.04 0 0 0-2.038-2.038zm-9 8.98h-3.924A2.04 2.04 0 0 0 26 22.038v3.924A2.04 2.04 0 0 0 28.038 28h3.924A2.04 2.04 0 0 0 34 25.962v-3.924A2.04 2.04 0 0 0 31.962 20zm-9 0h-3.924A2.04 2.04 0 0 0 17 22.038v3.924A2.04 2.04 0 0 0 19.038 28h3.924A2.04 2.04 0 0 0 25 25.962v-3.924A2.04 2.04 0 0 0 22.962 20zm18 0h-3.924A2.04 2.04 0 0 0 35 22.038v3.924A2.04 2.04 0 0 0 37.038 28h3.924A2.04 2.04 0 0 0 43 25.962v-3.924A2.04 2.04 0 0 0 40.962 20zm-9 9h-3.924A2.04 2.04 0 0 0 26 31.038v3.924A2.04 2.04 0 0 0 28.038 37h3.924A2.04 2.04 0 0 0 34 34.962v-3.924A2.04 2.04 0 0 0 31.962 29zm-9 0h-3.924A2.04 2.04 0 0 0 17 31.038v3.924A2.04 2.04 0 0 0 19.038 37h3.924A2.04 2.04 0 0 0 25 34.962v-3.924A2.04 2.04 0 0 0 22.962 29zm18 0h-3.924A2.04 2.04 0 0 0 35 31.038v3.924A2.04 2.04 0 0 0 37.038 37h3.924A2.04 2.04 0 0 0 43 34.962v-3.924A2.04 2.04 0 0 0 40.962 29z"/><circle cx="30" cy="53" r="2"/><path d="M42.595 0h-25.19A4.41 4.41 0 0 0 13 4.405v51.189A4.41 4.41 0 0 0 17.405 60h25.189A4.41 4.41 0 0 0 47 55.595V4.405A4.41 4.41 0 0 0 42.595 0zM33 3h1a1 1 0 1 1 0 2h-1a1 1 0 1 1 0-2zm-7 0h4a1 1 0 1 1 0 2h-4a1 1 0 1 1 0-2zm4 54c-2.206 0-4-1.794-4-4s1.794-4 4-4 4 1.794 4 4-1.794 4-4 4zm15-11H15V8h30v38z"/></svg>