<svg id="Calque_1" xmlns="http://www.w3.org/2000/svg" viewBox="0 0 84 94.5"><style>.st1{fill:#e3212b}</style><path d="M67.9 19.8v11.4c.1-3.8 0-7.6 0-11.4z" fill="none"/><path class="st1" d="M67.9 70.1v1.7c0 .5 0 .9-.1 1.4-.2 1.4-1.1 2.3-2.3 2.8-.6.2-1.2.2-1.8.2H21.6c-.7 0-1.4-.2-2-.5-1.5-.7-2-2.1-2-3.7V60.1c0-1.3-.4-2.2-1.3-3-.4-.4-.9-.8-1.4-1.1-1.3-.9-2.7-1.9-4.1-2.8-1.2-.8-2.4-1.5-3.8-2.5V52c0 8.1.1 16.2 0 24.4-.1 5.1 3.7 9.2 8 10.2 1.2.2 2.4.3 3.6.3h49.2c2.4 0 4.6-.6 6.5-2.1 2.5-1.9 4.2-4.3 4.2-7.5V52.9c0-3.5-1.5-6.2-4.3-8.1-2.1-1.4-4.2-2.9-6.3-4.3v29.6z"/><path class="st1" d="M17.6 19.8v-.6c.3-2.2 1.9-3.6 3.8-3.5h43.1c.8 0 1.3.3 1.9.7 1.2.9 1.5 2.1 1.5 3.4 0 3.8.1 7.6 0 11.4v.7c.1 1.5.8 2.6 2 3.4 2.7 1.8 5.4 3.7 8.1 5.5.1 0 .2 0 .4.1.1-.3.1-.6.1-.8V14.9c0-3.1-1.5-5.5-3.8-7.5-2.2-1.9-4.9-2.5-7.7-2.5H19.8c-1 0-2 .1-3 .1-5 .2-9.8 4.7-9.7 10.4v22.7c0 1.2.1 2.4.3 3.5.4 2.3 1.8 4 3.6 5.3 1.3 1 2.7 1.9 4 2.8 1.1.7 2.6 0 2.6-1.3V19.8z"/><path d="M67.9 31.9v-.7.7z"/></svg>