<svg id="Calque_1" xmlns="http://www.w3.org/2000/svg" viewBox="0 0 146 166"><style>.st0{fill:#e3212b}</style><path class="st0" d="M13.8 89.5c2.4 1.6 4.3 2.9 6.3 4.2l6.9 4.8c.8.6 1.6 1.2 2.4 1.9 1.5 1.3 2.2 2.9 2.2 4.9-.1 6.6 0 13.2 0 19.8 0 2.7.9 5 3.4 6.2 1 .5 2.2.8 3.3.8h70.3c1 0 2.1 0 3-.4 2-.8 3.4-2.3 3.8-4.6.1-.8.2-1.6.2-2.4V99.3c0-1-.1-2-.2-3-.3-2.1-1.3-3.9-3.1-5.2-3.5-2.4-7.1-4.9-10.7-7.3-7.7-5.2-15.4-10.3-23-15.5-1.9-1.3-3.7-2.9-5.4-4.6-2.2-2.2-3.2-5-3.2-8.2V43.6c0-.6.1-1.3.1-2.2 2.2 1.5 4.3 2.8 6.3 4.2 11.1 7.6 22.3 15.2 33.4 22.8 5.4 3.7 10.9 7.4 16.3 11.2 4.7 3.2 7.2 7.7 7.2 13.4 0 13.6.1 27.2 0 40.7 0 5.3-2.9 9.4-6.9 12.6-3.2 2.5-6.9 3.5-10.9 3.6H33.4c-2 0-4-.1-6-.5-7.2-1.6-13.5-8.5-13.4-17.1.1-13.5 0-27 0-40.5-.2-.6-.2-1.2-.2-2.3z"/><path class="st0" d="M133 73.2c-.3-.1-.5-.1-.7-.2-4.5-3.1-9-6.1-13.5-9.2-2.4-1.6-3.5-3.9-3.4-6.8.1-6.3 0-12.6 0-19 0-2.3-.6-4.3-2.4-5.7-.9-.7-1.9-1.2-3.1-1.2H40c-.7 0-1.4.1-2.2 0-3.2-.2-5.8 2.2-6.3 5.8V38c0 8.6.1 17.2 0 25.9 0 4.1 1.5 7.1 5 9.4 10.8 7 21.5 14.2 32.2 21.5 2 1.4 3.8 3 5.5 4.8 2 2.1 3 4.7 3 7.6v12.7c0 .5-.1 1-.2 1.7-2-1.3-3.8-2.5-5.5-3.7-12.8-8.7-25.6-17.5-38.4-26.2-4.2-2.9-8.4-5.7-12.6-8.7-3.1-2.2-5.3-5.1-6.1-8.8-.4-1.9-.6-3.8-.6-5.8-.1-12.6 0-25.3 0-37.9 0-9.4 8-16.9 16.3-17.1 1.7-.1 3.3-.2 5-.2H114c4.7 0 9.2.9 12.8 4.1 3.8 3.3 6.3 7.3 6.3 12.5.1 14 0 28 0 42 .1.4 0 .8-.1 1.4z"/></svg>