<svg id="Calque_1" xmlns="http://www.w3.org/2000/svg" viewBox="0 0 365 227"><style>.st0{fill:#e3212b}</style><path class="st0" d="M121.7 89.5c2.4 1.6 4.3 2.9 6.3 4.2l6.9 4.8c.8.6 1.6 1.2 2.4 1.9 1.5 1.3 2.2 2.9 2.2 4.9-.1 6.6 0 13.2 0 19.8 0 2.7.9 5 3.4 6.2 1 .5 2.2.8 3.3.8h70.3c1 0 2.1 0 3-.4 2-.8 3.4-2.3 3.8-4.6.1-.8.2-1.6.2-2.4V99.3c0-1-.1-2-.2-3-.3-2.1-1.3-3.9-3.1-5.2-3.5-2.4-7.1-4.9-10.7-7.3-7.7-5.2-15.4-10.3-23-15.5-1.9-1.3-3.7-2.9-5.4-4.6-2.2-2.2-3.2-5-3.2-8.2V43.6c0-.6.1-1.3.1-2.2 2.2 1.5 4.3 2.8 6.3 4.2 11.1 7.6 22.3 15.2 33.4 22.8 5.4 3.7 10.9 7.4 16.3 11.2 4.7 3.2 7.2 7.7 7.2 13.4 0 13.6.1 27.2 0 40.7 0 5.3-2.9 9.4-6.9 12.6-3.2 2.5-6.9 3.5-10.9 3.6h-82.1c-2 0-4-.1-6-.5-7.2-1.6-13.5-8.5-13.4-17.1.1-13.5 0-27 0-40.5-.2-.6-.2-1.2-.2-2.3z"/><path class="st0" d="M240.9 73.2c-.3-.1-.5-.1-.7-.2-4.5-3.1-9-6.1-13.5-9.2-2.4-1.6-3.5-3.9-3.4-6.8.1-6.3 0-12.6 0-19 0-2.3-.6-4.3-2.4-5.7-.9-.7-1.9-1.2-3.1-1.2h-69.9c-.7 0-1.4.1-2.2 0-3.2-.2-5.8 2.2-6.3 5.8V38c0 8.6.1 17.2 0 25.9 0 4.1 1.5 7.1 5 9.4 10.8 7.1 21.5 14.4 32.1 21.6 2 1.4 3.8 3 5.5 4.8 2 2.1 3 4.7 3 7.6V120c0 .5-.1 1-.2 1.7-2-1.3-3.8-2.5-5.5-3.7-12.8-8.7-25.6-17.5-38.4-26.2-4.2-2.9-8.4-5.7-12.6-8.7-3.1-2.2-5.3-5.1-6.1-8.8-.4-1.9-.6-3.8-.6-5.8-.1-12.6 0-25.3 0-37.9 0-9.4 8-16.9 16.3-17.1 1.7-.1 3.3-.2 5-.2h78.9c4.7 0 9.2.9 12.8 4.1 3.8 3.3 6.3 7.3 6.3 12.5.1 14 0 28 0 42 .1.3 0 .7 0 1.3z"/><path d="M335.7 204.5c.7-1.7 1.3-3.2 1.9-4.7 1.1-3 2.2-6 3.4-9 .3-.7.6-1.5 1.1-2.2 1.2-1.6 3.2-1.4 4.1.3.3.5.4 1 .5 1.5 1.5 5.1 2.5 10.3 3.4 15.5.3 1.8.5 3.5.7 5.3.1 1.2-.7 2.4-1.8 2.8-1 .3-1.9.1-2.4-.8-.4-.6-.6-1.4-.7-2.1-.7-4.1-1.4-8.2-2-12.3-.1-.3-.2-.6-.3-1.2-.2.5-.4.8-.5 1.1l-3.9 10.5c-.2.6-.5 1.2-.8 1.8-.7 1.2-2.1 1.8-3.3 1.2-.5-.2-.9-.8-1.2-1.3-1.7-3.3-3.4-6.6-5.1-10-.4-.8-.8-1.5-1.5-2.3-.1 1.3-.3 2.7-.4 4-.2 2.7-.4 5.4-.7 8.1-.1.6-.2 1.3-.4 1.9-.5 1.2-1.6 1.7-2.8 1.4-1.2-.3-1.8-1-1.8-2.4.1-2.1.3-4.2.5-6.3.3-3.1.6-6.1.9-9.2.2-2 .4-4.1.7-6.1.1-.7.4-1.5.9-2 1.1-1 2.6-.8 3.5.5.5.7.9 1.5 1.3 2.3 2 4 4 8 6.1 12 0 .7.3 1.1.6 1.7zm-84.2-5.5c2.5 1.8 2.5 3.6 0 5.4v5.8c0 .7 0 1.4-.2 2.1-.4 1.3-1.4 2.1-2.6 2-1.1-.1-2-.9-2.2-2.2-.1-.5-.1-1.1-.1-1.6v-5.8c-1.2-.4-7-.5-9.3-.2 0 .4-.1.8-.1 1.2v5c0 .6-.1 1.2-.3 1.7-.3 1-.9 1.7-2.1 1.7-1.2 0-2-.6-2.4-1.6-.3-.6-.4-1.4-.4-2.1v-19.7c0-1.3.4-2.3 1.5-3.1 1.5-1 3.1-.4 3.5 1.3.1.5.1 1 .1 1.5v8.4h9.3c0-.4.1-.8.1-1.2v-6.7c0-.7.1-1.4.4-2.1.5-1.2 1.6-1.8 2.9-1.6 1.1.2 1.9 1 1.9 2.3.1 1.6 0 3.3 0 4.9v4.6zm-190.1-.1h9.3c0-.5.1-.9.1-1.3v-6.3c0-.7.1-1.4.2-2.1.3-1.3 1.5-2 2.9-1.8 1.2.2 2 1 2 2.4.1 2.4 0 4.9 0 7.3v1.9c2.6 2 2.6 3.8 0 5.4v7.2c0 .8-.3 1.6-1 2.1-1.4 1.2-3.4.7-3.9-1.1-.2-.7-.2-1.4-.2-2.1v-5.8c-1.2-.4-6.9-.5-9.4-.2 0 .4-.1.8-.1 1.2v5.2c0 .4 0 .9-.1 1.3-.3 1.2-1.2 2-2.2 2-1.2 0-2.3-.8-2.6-2.1-.1-.5-.1-1-.1-1.5v-19.9c0-1.1.2-2 1-2.8.8-.7 1.8-.9 2.7-.6 1 .4 1.3 1.3 1.3 2.3v7.3c.1.7.1 1.2.1 2zm86.5 7.4v6.3c-.2 1.3-1.1 2.2-2.2 2.2-1.3 0-2.4-.9-2.6-2.2-.1-.4 0-.8 0-1.1v-4.4c0-1.1 0-2.1-.9-2.9-.7-.6-.6-1.6-.1-2.4.2-.4.6-.8 1-1.3v-10.1c.2-1.1.7-2 1.8-2.3 1.7-.5 3.4-.9 5.2-1.3 1.7-.3 3.4-.4 5.2.1 3.9 1 6.2 3.7 7 7.6.8 4-.7 7.4-4 9.8-1.7 1.3-3.7 2-5.9 2-1.5.1-2.9 0-4.5 0zm.1-5c2.6.5 4.9.4 7.1-.8 1.9-1 2.5-2.8 2.3-4.8-.2-1.9-1.7-3.6-3.4-4.1-2.1-.6-4 .2-6 .9v8.8zm136.1 2.3v4.9c.7.1 1.3.3 1.9.2 2-.2 4.1-.4 6.1-.7.8-.1 1.6-.2 2.3.3.8.5 1.4 1.3 1.3 2.3-.1 1-.7 1.8-1.8 2.1-2.6.7-5.2.9-7.9.9-1 0-1.9-.1-2.9-.2-.5 0-1.1-.1-1.6-.2-1.7-.4-2.4-1.2-2.4-3v-15.7c0-.7-.1-1.3-.5-2-1.1-1.6-.7-3 1.1-3.6 1.6-.5 3.3-.8 4.9-1 2.8-.2 5.5-.2 8.3-.3 1.1 0 2.2.3 2.7 1.4.7 1.3.1 2.9-1.5 3.3-.9.2-1.8.2-2.7.2-2.3.1-4.5.1-6.8.2-.1 0-.3.1-.5.2v5.5c1.4.1 2.8.1 4.1 0 1.2-.1 2.4-.2 3.6-.2 1.6 0 2.4.7 2.6 2.1.1 1.2-.6 2.3-2 2.5-1.6.3-3.2.4-4.8.5-1.1.4-2.3.3-3.5.3zM22.5 214.7c-3.9-.2-7.1-1.5-9.8-3.9-.6-.5-.8-1.1-.9-1.8-.1-1.9 1.7-3.1 3.4-2.3.3.1.6.3.8.6 1.8 1.8 4.1 2.3 6.6 2.3 1.6 0 3-1.2 3.2-2.5.2-1.6-.7-2.9-2.4-3.4-1.4-.4-2.8-.7-4.3-1-2-.5-3.9-1.2-5.4-2.9-1.5-1.7-1.9-4.5-.8-6.5 2.2-4 5.8-5.3 10.1-5.2 1.6.1 3.1.4 4.6 1.1 1.4.6 1.9 1.7 1.5 3-.4 1.3-1.4 1.9-2.8 1.6l-2.7-.6c-1.7-.5-3.2 0-4.7.6-.2.1-.5.2-.7.4-1.5 1.2-1.3 2.6.5 3.3.8.3 1.7.4 2.5.6 1.8.5 3.6.9 5.2 1.7 4.3 2 5.7 7.2 3.1 11-1.7 2.5-4.2 3.7-7 3.9zm171.7-21.8c-1.4 0-2.6.1-3.7 0-.9-.1-1.8-.2-2.7-.4-1.2-.3-1.7-1-1.6-1.9 0-.9.8-2.1 1.7-2.4.4-.1.9-.2 1.3-.2h15.1c1.4 0 2.3.7 2.7 1.9.4 1.4-.1 2.4-1.5 2.6-1.5.2-3.1.2-4.7.3h-1.6v19.1c-.1 1.6-.6 2.2-1.9 2.3-1.4.1-2.7-.8-2.9-2-.1-.5-.1-1-.1-1.5v-16.1c-.1-.4-.1-.9-.1-1.7zm-87 15.8v-16c-.6 0-1.1-.1-1.7-.1-1.4-.2-2.4-1-2.5-2.2-.1-1.2.9-2.3 2.2-2.6.3-.1.6-.1 1-.1h7.2c.6 0 1.3.3 1.8.6.8.5 1.1 1.3.9 2.3-.1.9-.6 1.5-1.5 1.8-.7.2-1.5.3-2.2.4-.3 1.1-.4 13.6-.1 15.9.5 0 1.1.1 1.7.2 1.3.2 2.3 1.1 2.3 2.3.1 1.1-.6 2-1.9 2.3-.9.2-1.8.3-2.7.3-2.1 0-4.2-.1-6.3-.2-1.1-.1-1.8-.7-2.1-1.8-.2-1 0-1.9.8-2.5.4-.3.9-.4 1.3-.5.5-.1 1.1-.1 1.8-.1z" fill="#383538"/></svg>