<svg id="Calque_1" xmlns="http://www.w3.org/2000/svg" viewBox="0 0 649 166"><style>.st0{fill:#e3212b}</style><path class="st0" d="M13.8 89.5c2.4 1.6 4.3 2.9 6.3 4.2l6.9 4.8c.8.6 1.6 1.2 2.4 1.9 1.5 1.3 2.2 2.9 2.2 4.9-.1 6.6 0 13.2 0 19.8 0 2.7.9 5 3.4 6.2 1 .5 2.2.8 3.3.8h70.3c1 0 2.1 0 3-.4 2-.8 3.4-2.3 3.8-4.6.1-.8.2-1.6.2-2.4V99.3c0-1-.1-2-.2-3-.3-2.1-1.3-3.9-3.1-5.2-3.5-2.4-7.1-4.9-10.7-7.3-7.7-5.2-15.4-10.3-23-15.5-1.9-1.3-3.7-2.9-5.4-4.6-2.2-2.2-3.2-5-3.2-8.2V43.6c0-.6.1-1.3.1-2.2 2.2 1.5 4.3 2.8 6.3 4.2 11.1 7.6 22.3 15.2 33.4 22.8 5.4 3.7 10.9 7.4 16.3 11.2 4.7 3.2 7.2 7.7 7.2 13.4 0 13.6.1 27.2 0 40.7 0 5.3-2.9 9.4-6.9 12.6-3.2 2.5-6.9 3.5-10.9 3.6H33.4c-2 0-4-.1-6-.5-7.2-1.6-13.5-8.5-13.4-17.1.1-13.5 0-27 0-40.5-.2-.6-.2-1.2-.2-2.3z"/><path class="st0" d="M133 73.2c-.3-.1-.5-.1-.7-.2-4.5-3.1-9-6.1-13.5-9.2-2.4-1.6-3.5-3.9-3.4-6.8.1-6.3 0-12.6 0-19 0-2.3-.6-4.3-2.4-5.7-.9-.7-1.9-1.2-3.1-1.2H40c-.7 0-1.4.1-2.2 0-3.2-.2-5.8 2.2-6.3 5.8V38c0 8.6.1 17.2 0 25.9 0 4.1 1.5 7.1 5 9.4 10.8 7 21.5 14.2 32.2 21.5 2 1.4 3.8 3 5.5 4.8 2 2.1 3 4.7 3 7.6v12.7c0 .5-.1 1-.2 1.7-2-1.3-3.8-2.5-5.5-3.7-12.8-8.7-25.6-17.5-38.4-26.2-4.2-2.9-8.4-5.7-12.6-8.7-3.1-2.2-5.3-5.1-6.1-8.8-.4-1.9-.6-3.8-.6-5.8-.1-12.6 0-25.3 0-37.9 0-9.4 8-16.9 16.3-17.1 1.7-.1 3.3-.2 5-.2H114c4.7 0 9.2.9 12.8 4.1 3.8 3.3 6.3 7.3 6.3 12.5.1 14 0 28 0 42 .1.4 0 .8-.1 1.4z"/><path d="M612.8 100.7c.9-2.2 1.7-4.2 2.5-6.2 1.5-4 2.9-7.9 4.5-11.9.4-1 .8-2 1.5-2.9 1.5-2.1 4.2-1.9 5.4.4.3.6.5 1.3.7 2 2 6.7 3.3 13.7 4.5 20.6.4 2.3.7 4.7.9 7 .2 1.6-.9 3.2-2.4 3.7-1.3.5-2.5.1-3.2-1-.5-.9-.7-1.9-.9-2.8-.9-5.4-1.8-10.9-2.7-16.3-.1-.4-.2-.8-.4-1.5-.3.6-.6 1-.7 1.5-1.7 4.6-3.5 9.3-5.2 13.9-.3.8-.7 1.6-1.1 2.4-.9 1.6-2.7 2.4-4.4 1.6-.6-.3-1.2-1-1.5-1.7-2.3-4.4-4.5-8.8-6.8-13.2-.5-1-1.1-2-1.9-3-.2 1.8-.4 3.5-.6 5.3-.3 3.6-.6 7.1-.9 10.7-.1.8-.2 1.7-.6 2.5-.6 1.5-2.1 2.3-3.7 1.9-1.6-.4-2.4-1.3-2.3-3.1.1-2.8.4-5.6.6-8.4.4-4.1.8-8.1 1.2-12.2.3-2.7.5-5.4.9-8.1.1-.9.6-2 1.2-2.6 1.4-1.4 3.4-1 4.6.7.7.9 1.2 2 1.7 3 2.7 5.3 5.3 10.6 8 15.9.4.5.7 1 1.1 1.8zm-111.5-7.3c3.4 2.4 3.3 4.7 0 7.1v7.7c0 .9 0 1.9-.3 2.8-.5 1.8-1.8 2.7-3.5 2.7-1.5-.1-2.6-1.1-3-2.9-.1-.7-.1-1.4-.1-2.1V101c-1.6-.5-9.3-.6-12.4-.2 0 .5-.1 1.1-.1 1.6v6.7c0 .8-.1 1.6-.4 2.3-.4 1.3-1.2 2.3-2.8 2.3-1.6 0-2.6-.8-3.2-2.1-.4-.8-.5-1.8-.5-2.7V82.8c0-1.7.5-3.1 2-4 2-1.3 4.1-.5 4.7 1.8.2.6.1 1.3.2 1.9v11h12.3c.1-.6.2-1.1.2-1.6v-8.8c0-.9.2-1.9.5-2.7.6-1.7 2.1-2.4 3.8-2.1 1.4.2 2.5 1.4 2.5 3 .1 2.2 0 4.3 0 6.5.1 1.7.1 3.6.1 5.6zm-251.7-.1H262c.1-.6.2-1.1.2-1.7v-8.4c0-.9.1-1.9.3-2.8.5-1.7 2-2.7 3.8-2.4 1.6.2 2.6 1.3 2.7 3.1.1 3.2 0 6.5 0 9.7v2.5c3.4 2.6 3.4 5 0 7.1v9.5c0 1.1-.5 2.1-1.3 2.8-1.8 1.6-4.5.9-5.2-1.4-.2-.9-.3-1.8-.3-2.8v-7.7c-1.5-.5-9.2-.6-12.4-.2 0 .5-.1 1.1-.1 1.6v6.9c0 .6 0 1.2-.1 1.7-.4 1.6-1.6 2.7-2.9 2.7-1.6.1-3.1-1.1-3.4-2.7-.1-.6-.1-1.3-.1-1.9V82.6c0-1.4.2-2.7 1.4-3.7 1.1-.9 2.3-1.2 3.6-.7 1.3.5 1.7 1.7 1.7 3v9.7c-.3.7-.3 1.4-.3 2.4zm114.7 9.9v5.8c0 .9.1 1.7-.1 2.6-.2 1.7-1.4 2.8-2.9 2.9-1.7 0-3.1-1.1-3.4-2.9-.1-.5-.1-1-.1-1.5v-5.8c0-1.4.1-2.8-1.3-3.9-1-.8-.8-2.1-.2-3.2.3-.5.8-1 1.4-1.7V84.1c0-.6-.1-1.3 0-1.9.2-1.4.9-2.6 2.4-3 2.3-.7 4.5-1.2 6.9-1.7 2.3-.5 4.6-.5 6.8.1 5.2 1.4 8.3 4.9 9.2 10 1 5.3-.9 9.8-5.3 13-2.3 1.7-4.9 2.6-7.8 2.7-1.7-.1-3.6-.1-5.6-.1zm0-6.7c3.4.6 6.5.6 9.4-1 2.5-1.4 3.3-3.6 3-6.4-.3-2.5-2.3-4.8-4.5-5.5-2.8-.8-5.3.3-7.9 1.2v11.7zm180.2 3v6.5c.9.1 1.7.3 2.5.3 2.7-.2 5.4-.5 8.1-.9 1.1-.2 2.1-.3 3.1.4 1.1.7 1.9 1.7 1.7 3-.2 1.4-1 2.3-2.4 2.7-3.4 1-6.9 1.2-10.4 1.2-1.3 0-2.6-.1-3.9-.2-.7-.1-1.4-.1-2.1-.3-2.2-.5-3.2-1.6-3.2-3.9V87.7c0-.9-.1-1.8-.7-2.6-1.4-2.1-.9-4 1.5-4.8 2.1-.7 4.3-1.1 6.5-1.3 3.6-.3 7.3-.3 11-.4 1.5 0 2.9.4 3.6 1.8 1 1.8.1 3.9-1.9 4.4-1.2.3-2.4.3-3.6.3l-9 .3c-.2 0-.4.1-.7.3V93c1.8.1 3.6.1 5.5-.1 1.6-.1 3.1-.3 4.7-.3 2.1 0 3.2 1 3.4 2.8.2 1.6-.8 3-2.6 3.4-2.1.4-4.3.6-6.4.7-1.6.1-3.1 0-4.7 0zm-346.3 14.8c-5.2-.3-9.3-2-12.9-5.1-.8-.7-1.1-1.5-1.2-2.4-.2-2.6 2.2-4.1 4.5-3 .4.2.8.4 1 .7 2.4 2.4 5.5 3 8.7 3 2.1 0 3.9-1.5 4.2-3.4.3-2.1-.9-3.8-3.2-4.5-1.9-.5-3.8-.9-5.6-1.4-2.7-.6-5.2-1.6-7.1-3.8-2-2.3-2.6-6-1.1-8.6 2.9-5.2 7.7-7.1 13.4-6.9 2.1.1 4.1.6 6 1.4 1.8.8 2.5 2.2 1.9 3.9-.6 1.7-1.8 2.5-3.7 2.1-1.2-.2-2.4-.5-3.6-.8-2.2-.6-4.3 0-6.3.8-.3.1-.6.3-.9.6-2 1.6-1.8 3.5.6 4.4 1.1.4 2.2.5 3.3.8 2.3.7 4.8 1.2 6.9 2.2 5.6 2.7 7.6 9.5 4.1 14.6-2 3.5-5.4 5.1-9 5.4zm227.2-28.9c-1.8 0-3.4.1-4.9 0-1.2-.1-2.4-.2-3.6-.5-1.6-.4-2.2-1.3-2.2-2.6.1-1.3 1.1-2.8 2.3-3.1.5-.2 1.1-.2 1.7-.2 6.7 0 13.4-.1 20-.1 1.8 0 3 .9 3.5 2.6.6 1.8-.1 3.2-2 3.5-2 .3-4.1.3-6.2.4h-2.1v25.3c-.1 2.1-.8 2.9-2.5 3.1-1.8.2-3.5-1-3.9-2.7-.1-.6-.1-1.3-.1-1.9V85.4zm-115.1 20.8V85.1c-.8-.1-1.5-.1-2.2-.2-1.9-.2-3.2-1.4-3.3-2.9-.1-1.6 1.1-3.1 2.9-3.5.4-.1.9-.1 1.3-.1h9.5c.8 0 1.7.3 2.4.7 1.1.6 1.4 1.8 1.2 3-.1 1.2-.8 2-1.9 2.3-1 .3-2 .4-3 .5-.4 1.4-.5 18-.1 21.1.7.1 1.5.1 2.3.2 1.7.2 3 1.5 3.1 3.1.1 1.4-.8 2.6-2.6 3-1.2.3-2.4.4-3.6.4-2.8 0-5.6-.1-8.4-.3-1.5-.1-2.4-1-2.7-2.3-.3-1.3 0-2.5 1.1-3.3.5-.4 1.2-.5 1.8-.6.5.1 1.3.1 2.2 0z" fill="#383538"/></svg>