<svg id="Calque_1" xmlns="http://www.w3.org/2000/svg" viewBox="0 0 440.9 94.5"><style>.st0{fill:#e3212b}</style><path class="st0" d="M7 50.7c1.4 1 2.6 1.7 3.8 2.5 1.4.9 2.8 1.9 4.1 2.8.5.3 1 .7 1.4 1.1.9.8 1.3 1.7 1.3 3V72c0 1.6.5 3 2 3.7.6.3 1.3.5 2 .5h42.1c.6 0 1.2 0 1.8-.2 1.2-.5 2.1-1.4 2.3-2.8.1-.5.1-.9.1-1.4V56.6c0-.6-.1-1.2-.1-1.8-.2-1.3-.8-2.4-1.9-3.1-2.1-1.5-4.2-2.9-6.4-4.4L45.7 38c-1.2-.8-2.2-1.7-3.2-2.8-1.3-1.3-1.9-3-1.9-4.9v-7.1c0-.4 0-.8.1-1.3 1.3.9 2.5 1.7 3.7 2.5 6.7 4.6 13.3 9.1 20 13.7 3.3 2.2 6.5 4.5 9.8 6.7 2.8 1.9 4.3 4.6 4.3 8.1v24.4c0 3.2-1.7 5.6-4.2 7.5-1.9 1.5-4.1 2.1-6.5 2.1H18.6c-1.2 0-2.4-.1-3.6-.3-4.3-1-8.1-5.1-8-10.2.1-8.2 0-16.3 0-24.4v-1.3z"/><path class="st0" d="M78.4 40.9c-.2-.1-.3-.1-.4-.1-2.7-1.8-5.4-3.7-8.1-5.5-1.4-1-2.1-2.3-2-4.1.1-3.8 0-7.6 0-11.4 0-1.3-.3-2.5-1.5-3.4-.6-.4-1.1-.7-1.9-.7H21.4c-1.9-.1-3.5 1.3-3.8 3.5v16.1c0 2.4.9 4.2 3 5.6 6.5 4.3 12.9 8.6 19.2 13 1.2.8 2.3 1.8 3.3 2.9 1.2 1.2 1.8 2.8 1.8 4.6V69c0 .3-.1.6-.1 1-1.2-.8-2.2-1.5-3.3-2.2-7.7-5.2-15.3-10.5-23-15.7-2.5-1.7-5-3.4-7.5-5.2-1.8-1.3-3.2-3-3.6-5.3-.2-1.1-.3-2.3-.3-3.5V15.4C7 9.7 11.8 5.2 16.8 5c1 0 2-.1 3-.1H67c2.8 0 5.5.6 7.7 2.5 2.3 2 3.8 4.4 3.8 7.5v25.2c0 .2 0 .5-.1.8z"/><path d="M417.2 49.6c.7-1.7 1.3-3.2 1.9-4.7 1.1-3 2.2-6 3.4-9 .3-.7.6-1.5 1.1-2.2 1.2-1.6 3.2-1.4 4.1.3.3.5.4 1 .5 1.5 1.5 5.1 2.5 10.3 3.4 15.5.3 1.8.5 3.5.7 5.3.1 1.2-.7 2.4-1.8 2.8-1 .3-1.9.1-2.4-.8-.4-.6-.6-1.4-.7-2.1-.7-4.1-1.4-8.2-2-12.3-.1-.3-.2-.6-.3-1.2-.2.5-.4.8-.5 1.1l-3.9 10.5c-.2.6-.5 1.2-.8 1.8-.7 1.2-2.1 1.8-3.3 1.2-.5-.2-.9-.8-1.2-1.3-1.7-3.3-3.4-6.6-5.1-10-.4-.8-.8-1.5-1.5-2.3-.1 1.3-.3 2.7-.4 4-.2 2.7-.4 5.4-.7 8.1-.1.6-.2 1.3-.4 1.9-.5 1.2-1.6 1.7-2.8 1.4-1.2-.3-1.8-1-1.8-2.4.1-2.1.3-4.2.5-6.3.3-3.1.6-6.1.9-9.2.2-2 .4-4.1.7-6.1.1-.7.4-1.5.9-2 1.1-1 2.6-.8 3.5.5.5.7.9 1.5 1.3 2.3 2 4 4 8 6.1 12 0 .8.3 1.1.6 1.7zM333 44.1c2.5 1.8 2.5 3.6 0 5.4v5.8c0 .7 0 1.4-.2 2.1-.4 1.3-1.4 2.1-2.6 2-1.1-.1-2-.9-2.2-2.2-.1-.5-.1-1.1-.1-1.6v-5.8c-1.2-.4-7-.5-9.3-.2 0 .4-.1.8-.1 1.2v5c0 .6-.1 1.2-.3 1.7-.3 1-.9 1.7-2.1 1.7-1.2 0-2-.6-2.4-1.6-.3-.6-.4-1.4-.4-2.1V35.8c0-1.3.4-2.3 1.5-3.1 1.5-1 3.1-.4 3.5 1.3.1.5.1 1 .1 1.5v8.4h9.3c0-.4.1-.8.1-1.2V36c0-.7.1-1.4.4-2.1.5-1.2 1.6-1.8 2.9-1.6 1.1.2 1.9 1 1.9 2.3.1 1.6 0 3.3 0 4.9v4.6zM142.9 44h9.3c0-.5.1-.9.1-1.3v-6.3c0-.7.1-1.4.2-2.1.3-1.3 1.5-2 2.9-1.8 1.2.2 2 1 2 2.4.1 2.4 0 4.9 0 7.3v1.9c2.6 2 2.6 3.8 0 5.4v7.2c0 .8-.3 1.6-1 2.1-1.4 1.2-3.4.7-3.9-1.1-.2-.7-.2-1.4-.2-2.1v-5.8c-1.2-.4-6.9-.5-9.4-.2 0 .4-.1.8-.1 1.2V56c0 .4 0 .9-.1 1.3-.3 1.2-1.2 2-2.2 2-1.2 0-2.3-.8-2.6-2.1-.1-.5-.1-1-.1-1.5V35.8c0-1.1.2-2 1-2.8.8-.7 1.8-.9 2.7-.6 1 .4 1.3 1.3 1.3 2.3V42c.1.7.1 1.3.1 2zm86.6 7.5v6.3c-.2 1.3-1.1 2.2-2.2 2.2-1.3 0-2.4-.9-2.6-2.2-.1-.4 0-.8 0-1.1v-4.4c0-1.1 0-2.1-.9-2.9-.7-.6-.6-1.6-.1-2.4.2-.4.6-.8 1-1.3V35.6c.2-1.1.7-2 1.8-2.3 1.7-.5 3.4-.9 5.2-1.3 1.7-.3 3.4-.4 5.2.1 3.9 1 6.2 3.7 7 7.6.8 4-.7 7.4-4 9.8-1.7 1.3-3.7 2-5.9 2h-4.5zm0-5c2.6.5 4.9.4 7.1-.8 1.9-1 2.5-2.8 2.3-4.8-.2-1.9-1.7-3.6-3.4-4.1-2.1-.6-4 .2-6 .9v8.8zm136.1 2.2v4.9c.7.1 1.3.3 1.9.2 2-.2 4.1-.4 6.1-.7.8-.1 1.6-.2 2.3.3.8.5 1.4 1.3 1.3 2.3-.1 1-.7 1.8-1.8 2.1-2.6.7-5.2.9-7.9.9-1 0-1.9-.1-2.9-.2-.5 0-1.1-.1-1.6-.2-1.7-.4-2.4-1.2-2.4-3V39.6c0-.7-.1-1.3-.5-2-1.1-1.6-.7-3 1.1-3.6 1.6-.5 3.3-.8 4.9-1 2.8-.2 5.5-.2 8.3-.3 1.1 0 2.2.3 2.7 1.4.7 1.3.1 2.9-1.5 3.3-.9.2-1.8.2-2.7.2-2.3.1-4.5.1-6.8.2-.1 0-.3.1-.5.2v5.5c1.4.1 2.8.1 4.1 0 1.2-.1 2.4-.2 3.6-.2 1.6 0 2.4.7 2.6 2.1.1 1.2-.6 2.3-2 2.5-1.6.3-3.2.4-4.8.5-1.1.4-2.3.3-3.5.3zM104.1 59.9c-3.9-.2-7.1-1.5-9.8-3.9-.6-.5-.8-1.1-.9-1.8-.1-1.9 1.7-3.1 3.4-2.3.3.1.6.3.8.6 1.8 1.8 4.1 2.3 6.6 2.3 1.6 0 3-1.2 3.2-2.5.2-1.6-.7-2.9-2.4-3.4-1.4-.4-2.8-.7-4.3-1-2-.5-3.9-1.2-5.4-2.9-1.5-1.7-1.9-4.5-.8-6.5 2.2-4 5.8-5.3 10.1-5.2 1.6.1 3.1.4 4.6 1.1 1.4.6 1.9 1.7 1.5 3-.4 1.3-1.4 1.9-2.8 1.6l-2.7-.6c-1.7-.5-3.2 0-4.7.6-.2.1-.5.2-.7.4-1.5 1.2-1.3 2.6.5 3.3.8.3 1.7.4 2.5.6 1.8.5 3.6.9 5.2 1.7 4.3 2 5.7 7.2 3.1 11-1.8 2.5-4.3 3.7-7 3.9zM275.7 38c-1.4 0-2.6.1-3.7 0-.9-.1-1.8-.2-2.7-.4-1.2-.3-1.7-1-1.6-1.9 0-.9.8-2.1 1.7-2.4.4-.1.9-.2 1.3-.2h15.1c1.4 0 2.3.7 2.7 1.9.4 1.4-.1 2.4-1.5 2.6-1.5.2-3.1.2-4.7.3h-1.6V57c-.1 1.6-.6 2.2-1.9 2.3-1.4.1-2.7-.8-2.9-2-.1-.5-.1-1-.1-1.5V39.7c-.1-.3-.1-.9-.1-1.7zm-87 15.8v-16c-.6 0-1.1-.1-1.7-.1-1.4-.2-2.4-1-2.5-2.2-.1-1.2.9-2.3 2.2-2.6.3-.1.6-.1 1-.1h7.2c.6 0 1.3.3 1.8.6.8.5 1.1 1.3.9 2.3-.1.9-.6 1.5-1.5 1.8-.7.2-1.5.3-2.2.4-.3 1.1-.4 13.6-.1 15.9.5 0 1.1.1 1.7.2 1.3.2 2.3 1.1 2.3 2.3.1 1.1-.6 2-1.9 2.3-.9.2-1.8.3-2.7.3-2.1 0-4.2-.1-6.3-.2-1.1-.1-1.8-.7-2.1-1.8-.2-1 0-1.9.8-2.5.4-.3.9-.4 1.3-.5.5-.1 1.1-.1 1.8-.1z" fill="#383538"/></svg>