<svg id="Calque_1" xmlns="http://www.w3.org/2000/svg" viewBox="0 0 595.3 474"><style>.st0{fill:#e9eaf0}</style><path class="st0" d="M490.4 160.9c-10.5-24.9-25.6-47.3-44.8-66.5-19.2-19.2-41.6-34.3-66.5-44.8-25.8-10.9-53.2-16.4-81.4-16.4-28.2 0-55.6 5.5-81.4 16.4-24.9 10.5-47.3 25.6-66.5 44.8-19.2 19.2-34.3 41.6-44.8 66.5-10.9 25.8-16.4 53.2-16.4 81.4 0 28.2 5.5 55.6 16.4 81.4 10.5 24.9 25.6 47.3 44.8 66.5 19.2 19.2 41.6 34.3 66.5 44.8 25.8 10.9 53.2 16.4 81.4 16.4 28.2 0 55.6-5.5 81.4-16.4 24.9-10.5 47.3-25.6 66.5-44.8 19.2-19.2 34.3-41.6 44.8-66.5 10.9-25.8 16.4-53.2 16.4-81.4 0-28.2-5.5-55.6-16.4-81.4zM297.6 442.2c-110.4 0-199.9-89.5-199.9-199.9S187.3 42.5 297.6 42.5c110.4 0 199.8 89.5 199.8 199.9S408 442.2 297.6 442.2z"/><ellipse transform="rotate(-45.001 297.639 242.363)" class="st0" cx="297.6" cy="242.4" rx="190.5" ry="190.5"/></svg>